# File created by Blade
# Date/Time:  Tue Apr 07 20:45:22 2015
# Frame Rate: 120.000 fps
#------------------------------------------------------
:FULLY-SPECIFIED
:DEGREES
669
root 1.899069 34.722178 -4.197454 24.535949 -23.574659 -52.054848
Spine -0.462338 28.276622 32.594318
Head 8.709981 0.609319 20.631969
LeftShoulder -22.123478 23.392525 35.451544
LeftArm 89.650257 -81.437717 -67.467631
LeftForeArm 15.588639 -0.000000 16.572777
LeftHand 8.979528 -0.000000 16.769196
LeftHandThumb1 -26.253704 0.000000 33.147579
RightShoulder -9.398297 30.936048 -33.811614
RightArm 64.960160 76.503643 103.797617
RightForeArm 39.614600 -0.000000 59.439320
RightHand 1.341251 -0.000000 28.555756
RightHandThumb1 -24.326973 -0.000000 -32.862282
LeftUpLeg -4.262482 -8.018637 41.235635
LeftLeg 20.176329 -0.000000 -0.000000
LeftFoot -12.032947 34.255662 -12.558540
LeftToeBase -16.311937 -0.000000 0.000000
RightUpLeg -132.803899 -56.598683 17.224873
RightLeg -12.135645 -0.000000 0.000000
RightFoot 39.008740 -25.072500 15.439352
RightToeBase 15.480088 -0.000000 -0.000000
670
root 1.900313 34.689942 -4.205246 24.606930 -23.696905 -52.074324
Spine -0.437427 28.213563 32.497820
Head 8.785978 0.710860 20.783545
LeftShoulder -22.073095 23.309662 35.524786
LeftArm 90.096077 -81.365549 -67.755793
LeftForeArm 15.600692 -0.000000 16.730825
LeftHand 8.939542 -0.000000 16.775669
LeftHandThumb1 -26.253704 0.000000 33.147579
RightShoulder -9.420279 30.898232 -33.800405
RightArm 65.071591 76.433651 103.953767
RightForeArm 39.722335 -0.000000 59.506564
RightHand 1.304962 -0.000000 28.543863
RightHandThumb1 -24.326973 -0.000000 -32.862282
LeftUpLeg -4.066016 -7.870510 41.285374
LeftLeg 19.970097 -0.000000 -0.000000
LeftFoot -12.950619 33.801772 -13.745367
LeftToeBase -16.453795 -0.000000 0.000000
RightUpLeg -132.898767 -56.567153 17.250750
RightLeg -12.153131 -0.000000 0.000000
RightFoot 38.950455 -25.127239 15.596054
RightToeBase 15.494742 -0.000000 -0.000000
671
root 1.904755 34.653139 -4.214145 24.640473 -23.817899 -52.055603
Spine -0.379864 28.127144 32.378372
Head 8.825485 0.788301 20.927109
LeftShoulder -22.045155 23.287524 35.585036
LeftArm 91.285376 -81.288313 -68.855329
LeftForeArm 15.712164 -0.000000 16.962943
LeftHand 8.933113 -0.000000 16.785771
LeftHandThumb1 -26.253704 0.000000 33.147579
RightShoulder -9.428198 30.858762 -33.726488
RightArm 65.187044 76.364128 104.019131
RightForeArm 39.892356 -0.000000 59.501345
RightHand 1.384693 -0.000000 28.497131
RightHandThumb1 -24.326973 -0.000000 -32.862282
LeftUpLeg -3.914488 -7.755515 41.291190
LeftLeg 19.864395 -0.000000 -0.000000
LeftFoot -13.921284 33.209466 -14.962851
LeftToeBase -16.609905 -0.000000 0.000000
RightUpLeg -133.010886 -56.517352 17.269955
RightLeg -12.116373 -0.000000 0.000000
RightFoot 38.936820 -25.041428 15.458815
RightToeBase 15.408947 -0.000000 -0.000000
672
root 1.913686 34.613664 -4.222101 24.651747 -23.901092 -52.022321
Spine -0.320212 27.982158 32.276324
Head 8.854834 0.893942 21.047609
LeftShoulder -22.087250 23.300573 35.587149
LeftArm 92.044259 -81.196695 -69.457738
LeftForeArm 15.769746 -0.000000 17.149363
LeftHand 8.937812 -0.000000 16.983285
LeftHandThumb1 -26.253704 0.000000 33.147579
RightShoulder -9.406208 30.808098 -33.679247
RightArm 65.680508 76.345505 104.515238
RightForeArm 40.125858 -0.000000 59.514675
RightHand 1.321107 -0.000000 28.454346
RightHandThumb1 -24.326973 -0.000000 -32.862282
LeftUpLeg -3.845822 -7.661328 41.288314
LeftLeg 19.886815 -0.000000 -0.000000
LeftFoot -14.762571 32.692106 -15.855245
LeftToeBase -16.225649 -0.000000 0.000000
RightUpLeg -133.167431 -56.473811 17.381628
RightLeg -12.119520 -0.000000 0.000000
RightFoot 38.963057 -25.059210 15.434931
RightToeBase 15.380461 -0.000000 -0.000000
673
root 1.925513 34.572721 -4.232732 24.667768 -23.979226 -52.003327
Spine -0.236764 27.877272 32.201021
Head 8.844665 0.955658 21.126289
LeftShoulder -22.067046 23.273120 35.643857
LeftArm 92.795364 -81.110078 -70.153351
LeftForeArm 15.819204 -0.000000 17.414441
LeftHand 8.943714 0.000000 16.843234
LeftHandThumb1 -26.253704 0.000000 33.147579
RightShoulder -9.457289 30.834337 -33.771726
RightArm 66.015885 76.415895 104.975379
RightForeArm 40.160961 -0.000000 59.450226
RightHand 1.413701 -0.000000 28.472884
RightHandThumb1 -24.326973 -0.000000 -32.862282
LeftUpLeg -3.868005 -7.524548 41.292034
LeftLeg 20.079583 -0.000000 -0.000000
LeftFoot -15.699742 32.092158 -16.841543
LeftToeBase -15.641620 -0.000000 0.000000
RightUpLeg -133.277122 -56.447201 17.479178
RightLeg -12.119473 -0.000000 0.000000
RightFoot 38.942868 -25.088427 15.429006
RightToeBase 15.432070 -0.000000 -0.000000
674
root 1.940197 34.532389 -4.248092 24.678885 -24.042396 -51.979183
Spine -0.135394 27.740536 32.146197
Head 8.825540 1.038423 21.151164
LeftShoulder -22.066660 23.192367 35.662530
LeftArm 93.418988 -81.004818 -70.708845
LeftForeArm 16.075483 -0.000000 17.693908
LeftHand 8.898456 0.000000 16.919706
LeftHandThumb1 -26.253704 0.000000 33.147579
RightShoulder -9.513546 30.702836 -33.762221
RightArm 67.067432 76.338968 106.023947
RightForeArm 40.306058 0.000000 59.363105
RightHand 1.361702 -0.000000 28.533300
RightHandThumb1 -24.326973 -0.000000 -32.862282
LeftUpLeg -3.997800 -7.398443 41.303246
LeftLeg 20.409279 -0.000000 -0.000000
LeftFoot -16.504995 31.486236 -17.758333
LeftToeBase -15.531337 -0.000000 0.000000
RightUpLeg -133.413853 -56.399918 17.614482
RightLeg -12.084344 -0.000000 0.000000
RightFoot 38.971539 -25.049132 15.325654
RightToeBase 15.293008 -0.000000 -0.000000
675
root 1.959552 34.494087 -4.266721 24.695864 -24.078654 -51.994359
Spine -0.004022 27.638376 32.163840
Head 8.709093 1.110314 21.151757
LeftShoulder -22.064325 23.180169 35.655881
LeftArm 93.990832 -80.901954 -71.228936
LeftForeArm 16.024844 -0.000000 17.962283
LeftHand 8.983845 -0.000000 17.313998
LeftHandThumb1 -26.253704 0.000000 33.147579
RightShoulder -9.539500 30.803385 -33.748307
RightArm 67.213270 76.419045 106.060632
RightForeArm 40.336177 -0.000000 59.224151
RightHand 1.354872 -0.000000 28.614739
RightHandThumb1 -24.326973 -0.000000 -32.862282
LeftUpLeg -4.232085 -7.192320 41.359852
LeftLeg 20.904685 -0.000000 -0.000000
LeftFoot -17.048843 30.918648 -18.365897
LeftToeBase -15.693566 -0.000000 0.000000
RightUpLeg -133.473620 -56.383422 17.741481
RightLeg -12.081078 -0.000000 0.000000
RightFoot 39.010464 -25.127347 15.331789
RightToeBase 15.359219 -0.000000 -0.000000
676
root 1.976247 34.458868 -4.285555 24.712407 -24.124953 -52.016949
Spine 0.126016 27.541612 32.166498
Head 8.646501 1.182192 21.181738
LeftShoulder -22.051474 23.083399 35.692874
LeftArm 93.213401 -80.834534 -70.329140
LeftForeArm 16.169710 -0.000000 18.102633
LeftHand 9.129388 0.000000 17.045286
LeftHandThumb1 -26.253704 0.000000 33.147579
RightShoulder -9.577301 30.902730 -33.739244
RightArm 66.805857 76.503454 105.586340
RightForeArm 40.486215 0.000000 59.058846
RightHand 1.459326 -0.000000 28.542867
RightHandThumb1 -24.326973 -0.000000 -32.862282
LeftUpLeg -4.502140 -6.945266 41.430447
LeftLeg 21.480636 -0.000000 -0.000000
LeftFoot -17.582457 30.288560 -19.048986
LeftToeBase -15.924565 -0.000000 0.000000
RightUpLeg -133.470394 -56.359751 17.809439
RightLeg -12.082228 -0.000000 0.000000
RightFoot 38.900168 -25.425961 15.533197
RightToeBase 15.799185 -0.000000 -0.000000
677
root 1.993950 34.426903 -4.307352 24.732074 -24.181264 -52.066867
Spine 0.277270 27.483388 32.196728
Head 8.572452 1.278686 21.236332
LeftShoulder -22.075891 23.079070 35.709662
LeftArm 93.665176 -80.705353 -70.713472
LeftForeArm 16.391971 -0.000000 18.344513
LeftHand 9.012912 -0.000000 17.096382
LeftHandThumb1 -26.253704 0.000000 33.147579
RightShoulder -9.552744 30.932134 -33.730106
RightArm 66.983523 76.657001 105.739765
RightForeArm 40.709994 -0.000000 58.957183
RightHand 1.356862 -0.000000 28.556392
RightHandThumb1 -24.326973 -0.000000 -32.862282
LeftUpLeg -4.799171 -6.709678 41.527224
LeftLeg 22.135325 -0.000000 -0.000000
LeftFoot -18.146803 29.633319 -19.786507
LeftToeBase -15.784015 -0.000000 0.000000
RightUpLeg -133.435193 -56.337198 17.861963
RightLeg -12.039084 -0.000000 0.000000
RightFoot 39.137492 -25.235293 15.283139
RightToeBase 15.346344 -0.000000 -0.000000
678
root 2.012040 34.400575 -4.332237 24.784864 -24.267757 -52.162663
Spine 0.438404 27.497663 32.244435
Head 8.496205 1.337485 21.332310
LeftShoulder -22.082408 23.078349 35.729395
LeftArm 93.129389 -80.618576 -70.040817
LeftForeArm 16.438128 -0.000000 18.487311
LeftHand 8.997449 -0.000000 17.184135
LeftHandThumb1 -26.253704 0.000000 33.147579
RightShoulder -9.552571 30.932401 -33.674575
RightArm 67.090171 76.798748 105.733621
RightForeArm 40.879107 -0.000000 58.775897
RightHand 1.292622 -0.000000 28.553558
RightHandThumb1 -24.326973 -0.000000 -32.862282
LeftUpLeg -5.075751 -6.323701 41.658591
LeftLeg 22.754325 -0.000000 -0.000000
LeftFoot -18.473207 28.878353 -20.258473
LeftToeBase -15.764262 -0.000000 0.000000
RightUpLeg -133.330133 -56.292010 17.865456
RightLeg -12.002864 -0.000000 0.000000
RightFoot 39.136644 -25.341123 15.476145
RightToeBase 15.492505 -0.000000 -0.000000
679
root 2.026589 34.379439 -4.356994 24.831196 -24.386584 -52.252114
Spine 0.602720 27.537842 32.253756
Head 8.444566 1.403293 21.485633
LeftShoulder -22.098375 22.961709 35.801791
LeftArm 92.295909 -80.447202 -69.015978
LeftForeArm 16.599423 -0.000000 18.516844
LeftHand 9.042755 0.000000 17.139751
LeftHandThumb1 -26.253704 0.000000 33.147579
RightShoulder -9.565843 30.969118 -33.624292
RightArm 66.738915 76.921193 105.304621
RightForeArm 41.061753 -0.000000 58.586756
RightHand 1.414189 -0.000000 28.425280
RightHandThumb1 -24.326973 -0.000000 -32.862282
LeftUpLeg -5.276968 -5.994705 41.772055
LeftLeg 23.299456 -0.000000 -0.000000
LeftFoot -18.842177 28.153931 -20.845261
LeftToeBase -15.796704 -0.000000 0.000000
RightUpLeg -133.149652 -56.245132 17.760340
RightLeg -11.967450 -0.000000 0.000000
RightFoot 39.181134 -25.441378 15.582001
RightToeBase 15.618504 -0.000000 -0.000000
680
root 2.040064 34.363918 -4.381213 24.869009 -24.524227 -52.350820
Spine 0.762082 27.623675 32.260998
Head 8.452943 1.439447 21.668768
LeftShoulder -22.095640 23.003517 35.832326
LeftArm 91.545090 -80.374143 -68.086008
LeftForeArm 16.571591 -0.000000 18.645998
LeftHand 9.006661 -0.000000 16.707147
LeftHandThumb1 -26.253704 0.000000 33.147579
RightShoulder -9.581569 30.915175 -33.554608
RightArm 66.411296 77.029673 104.882118
RightForeArm 41.302198 -0.000000 58.396927
RightHand 1.480246 -0.000000 28.366121
RightHandThumb1 -24.326973 -0.000000 -32.862282
LeftUpLeg -5.391242 -5.675147 41.883485
LeftLeg 23.734975 -0.000000 -0.000000
LeftFoot -19.176969 27.437663 -21.430314
LeftToeBase -15.612660 -0.000000 0.000000
RightUpLeg -132.976721 -56.174484 17.652445
RightLeg -11.908309 -0.000000 0.000000
RightFoot 39.169443 -25.537029 15.838080
RightToeBase 15.703441 -0.000000 -0.000000
681
root 2.046237 34.352256 -4.399690 24.926796 -24.721993 -52.432350
Spine 0.885249 27.754427 32.164940
Head 8.445755 1.467080 21.957753
LeftShoulder -22.091587 22.966980 35.920323
LeftArm 90.610914 -80.277917 -66.918280
LeftForeArm 16.596029 -0.000000 18.681094
LeftHand 8.999404 -0.000000 16.759135
LeftHandThumb1 -26.253704 0.000000 33.147579
RightShoulder -9.670836 30.814650 -33.451981
RightArm 66.733887 77.050280 105.139534
RightForeArm 41.352571 -0.000000 58.209990
RightHand 1.509183 -0.000000 28.464820
RightHandThumb1 -24.326973 -0.000000 -32.862282
LeftUpLeg -5.387364 -5.360458 41.946951
LeftLeg 24.004592 -0.000000 -0.000000
LeftFoot -19.465967 26.804622 -21.952498
LeftToeBase -15.416533 -0.000000 0.000000
RightUpLeg -132.886030 -56.042450 17.560043
RightLeg -11.842875 -0.000000 0.000000
RightFoot 39.177867 -25.642200 16.107434
RightToeBase 15.776602 -0.000000 -0.000000
